# xmcd
# 
# Track frame offsets:
#     150
#     11957
#     43937
#     50792
#     80297
#     96575
#     116307
#     140142
#     169622
#     178862
#     195037
#     214232
#     230417
#     242372
#     249662
#     254770
#     268197
#     273877
#     285480
# 
# Disc length: 4162
# 
# Revision: 2
# Processed by: cddbd v1.5.2PL0 Copyright (c) Steve Scherf et al.
# Submitted via: fre:ac v1.0.31
# 
DISCID=1b104013
DTITLE=ウィーン・フィルハーモニー管弦楽団 - 《白鳥の湖》《眠りの森の美女》《くるみ割り人形》チャイコフスキーバレエ組曲
DYEAR=1965
DGENRE=Classical -> General Classical
TTITLE0=1. 情景＜第2幕＞
TTITLE1=2.ワルツ<第１幕>
TTITLE2=3.白鳥の踊り<第２幕>
TTITLE3=4.情景<第２幕>
TTITLE4=5.ハンガリーの踊り<第3幕>
TTITLE5=6.情景<第4幕>
TTITLE6=1.序奏とリラの精<プロローグ>
TTITLE7=2.アダージョ パ・ダクシオン<第１幕>
TTITLE8=3.パ・ド・カラクテール"長靴を履いた猫"<第３幕>
TTITLE9=4.パノラマ<第２幕>
TTITLE10=5.ワルツ<第１幕>
TTITLE11=1. 小序曲<第１幕>
TTITLE12=2-A.行進曲～特徴のある踊り<第１幕>
TTITLE13=2-B.こんぺい糖の踊り～特徴のある踊り<第２幕>
TTITLE14=2-C.ロシアの踊り"トレパーク"～特徴のある踊り<第２幕>
TTITLE15=2-D.アラビアの踊り～特徴のある踊り<第２幕>
TTITLE16=2-E.中国の踊り～特徴のある踊り<第２幕>
TTITLE17=2-F.あし笛の踊り～特徴のある踊り<第２幕>
TTITLE18=3.花のワルツ<第２幕>
EXTD=
EXTT0=
EXTT1=
EXTT2=
EXTT3=
EXTT4=
EXTT5=
EXTT6=
EXTT7=
EXTT8=
EXTT9=
EXTT10=
EXTT11=
EXTT12=
EXTT13=
EXTT14=
EXTT15=
EXTT16=
EXTT17=
EXTT18=
PLAYORDER=
